<svg width="64" height="64" viewBox="0 0 64 64" fill="none" xmlns="http://www.w3.org/2000/svg">
<rect width="64" height="64" rx="32" fill="#25632D"/>
<path d="M32.1806 23.1043L27.0381 27.188C26.1828 27.8651 26.0181 29.084 26.6663 29.9539C27.3516 30.8811 28.685 31.0634 29.6041 30.3602L34.8794 26.339C35.2513 26.0577 35.7825 26.1202 36.0747 26.4848C36.3669 26.8494 36.2978 27.3703 35.9259 27.6568L34.8156 28.5006L42.2 35.1679V25.3337H42.1628L41.9556 25.2034L38.0987 22.7813C37.2859 22.2709 36.335 22 35.3681 22C34.21 22 33.0837 22.3907 32.1806 23.1043ZM33.3919 29.5841L30.6453 31.678C28.9719 32.9594 26.5441 32.626 25.2903 30.9384C24.1109 29.3497 24.4084 27.1307 25.965 25.8962L30.385 22.3907C29.7687 22.1354 29.1047 22.0052 28.43 22.0052C27.4313 22 26.4591 22.2917 25.625 22.8334L21.8 25.3337V37.0014H23.2981L28.1537 41.3456C29.195 42.278 30.8047 42.2051 31.7556 41.1841C32.0478 40.8664 32.2444 40.4966 32.3453 40.1111L33.2484 40.9237C34.2844 41.8561 35.8994 41.7884 36.8503 40.7726C37.0894 40.5174 37.2647 40.2205 37.3763 39.9132C38.4069 40.5903 39.8094 40.4497 40.6753 39.5225C41.6262 38.5068 41.5572 36.9233 40.5212 35.9909L33.3919 29.5841ZM15.85 25.3337C15.3825 25.3337 15 25.7087 15 26.1671V37.0014C15 37.9234 15.7597 38.6683 16.7 38.6683H18.4C19.3403 38.6683 20.1 37.9234 20.1 37.0014V25.3337H15.85ZM17.55 35.3346C17.7754 35.3346 17.9916 35.4224 18.151 35.5787C18.3104 35.735 18.4 35.947 18.4 36.168C18.4 36.3891 18.3104 36.601 18.151 36.7573C17.9916 36.9136 17.7754 37.0014 17.55 37.0014C17.3246 37.0014 17.1084 36.9136 16.949 36.7573C16.7896 36.601 16.7 36.3891 16.7 36.168C16.7 35.947 16.7896 35.735 16.949 35.5787C17.1084 35.4224 17.3246 35.3346 17.55 35.3346ZM43.9 25.3337V37.0014C43.9 37.9234 44.6597 38.6683 45.6 38.6683H47.3C48.2403 38.6683 49 37.9234 49 37.0014V26.1671C49 25.7087 48.6175 25.3337 48.15 25.3337H43.9ZM45.6 36.168C45.6 35.947 45.6896 35.735 45.849 35.5787C46.0084 35.4224 46.2246 35.3346 46.45 35.3346C46.6754 35.3346 46.8916 35.4224 47.051 35.5787C47.2104 35.735 47.3 35.947 47.3 36.168C47.3 36.3891 47.2104 36.601 47.051 36.7573C46.8916 36.9136 46.6754 37.0014 46.45 37.0014C46.2246 37.0014 46.0084 36.9136 45.849 36.7573C45.6896 36.601 45.6 36.3891 45.6 36.168Z" fill="#F9FCF3"/>
</svg>
